<svg width="131" height="131" viewBox="0 0 131 131" fill="none" xmlns="http://www.w3.org/2000/svg">
<mask id="mask0_2_19" style="mask-type:luminance" maskUnits="userSpaceOnUse" x="0" y="0" width="131" height="131">
<path d="M0 0H130.56V130.56H0V0Z" fill="white"/>
</mask>
<g mask="url(#mask0_2_19)">
<path d="M98.4191 60.4415L77.7102 60.4513L83.173 39.7935C84.4982 35.5285 85.3349 30.0461 80.9763 30.0047C78.8069 29.984 76.6309 29.984 75.5668 31.0633L49.4385 59.3274L49.4004 99.6433L94.0127 99.6008C98.4017 99.6008 99.6954 96.9635 100.565 93.0717L105.976 69.1803C107.095 64.0461 104.257 60.4415 98.4191 60.4415Z" fill="black"/>
<path d="M42.4461 60.4155L25 60.4514L25.0207 99.6086L42.3982 99.6412L42.4461 60.4155Z" fill="black"/>
</g>
</svg>
